Coordinates
version=1
nRows=43
nColumns=12
inDegrees=yes

Units are S.I. units (second, meters, Newtons, ...)
Angles are in degrees

endheader
time	SC_y	SC_z	SC_x	AC_y	AC_z	AC_x	GH_y	GH_z	GH_yy	EL_x	PS_y
       0.0              -38.54          -1.52          77.52          43.07         -9.705         -6.198         -34.37         -5.834         -95.62          39.54          22.39
  0.004211              -38.54         -1.514          77.52          43.07         -9.703         -6.197         -34.39         -5.825         -95.61          39.55           22.4
  0.008423              -38.54         -1.509          77.51          43.07         -9.701         -6.196          -34.4         -5.816         -95.61          39.57          22.41
   0.01263              -38.55         -1.502           77.5          43.08         -9.699         -6.195         -34.42         -5.805          -95.6          39.58          22.42
   0.01685              -38.55         -1.496          77.49          43.08         -9.696         -6.193         -34.44         -5.795         -95.59           39.6          22.43
   0.02106              -38.55         -1.489          77.49          43.08         -9.694         -6.192         -34.46         -5.783         -95.57          39.62          22.44
   0.02527              -38.56         -1.481          77.48          43.08         -9.691         -6.191         -34.48         -5.771         -95.56          39.64          22.45
   0.02948              -38.56         -1.473          77.47          43.08         -9.688         -6.189          -34.5         -5.758         -95.55          39.66          22.46
   0.03369              -38.57         -1.465          77.46          43.08         -9.685         -6.187         -34.52         -5.743         -95.54          39.68          22.47
    0.0379              -38.57         -1.456          77.45          43.08         -9.681         -6.185         -34.55         -5.728         -95.52           39.7          22.48
   0.04211              -38.58         -1.446          77.43          43.08         -9.678         -6.183         -34.57         -5.712          -95.5          39.73           22.5
   0.04632              -38.58         -1.435          77.42          43.08         -9.674         -6.181          -34.6         -5.694         -95.49          39.76          22.51
   0.05054              -38.59         -1.424          77.41          43.09          -9.67         -6.179         -34.63         -5.676         -95.47          39.79          22.53
   0.05475              -38.59         -1.412          77.39          43.09         -9.665         -6.177         -34.66         -5.655         -95.45          39.82          22.54
   0.05896               -38.6         -1.398          77.38          43.09          -9.66         -6.174          -34.7         -5.633         -95.43          39.85          22.56
   0.06317              -38.61         -1.384          77.36          43.09         -9.655         -6.171         -34.74         -5.609          -95.4          39.89          22.58
   0.06738              -38.61         -1.368          77.34          43.09         -9.649         -6.168         -34.78         -5.583         -95.38          39.93          22.61
   0.07159              -38.62         -1.351          77.32          43.09         -9.643         -6.164         -34.83         -5.555         -95.35          39.97          22.63
    0.0758              -38.63         -1.332           77.3           43.1         -9.636         -6.161         -34.88         -5.524         -95.32          40.02          22.66
   0.08002              -38.64         -1.312          77.28           43.1         -9.629         -6.157         -34.93          -5.49         -95.29          40.07          22.69
   0.08423              -38.65         -1.289          77.25           43.1          -9.62         -6.152         -34.99         -5.453         -95.25          40.13          22.72
   0.08844              -38.67         -1.264          77.22           43.1         -9.611         -6.147         -35.06         -5.412         -95.21           40.2          22.75
   0.09265              -38.68         -1.237          77.19          43.11         -9.601         -6.142         -35.13         -5.367         -95.17          40.27          22.79
   0.09686              -38.69         -1.207          77.15          43.11          -9.59         -6.136         -35.21         -5.317         -95.12          40.34          22.83
    0.1011              -38.71         -1.173          77.11          43.12         -9.578         -6.129          -35.3         -5.261         -95.07          40.43          22.88
    0.1053              -38.73         -1.135          77.07          43.12         -9.564         -6.121         -35.41         -5.199         -95.01          40.53          22.93
    0.1095              -38.75         -1.093          77.02          43.13         -9.549         -6.113         -35.52         -5.129         -94.94          40.64          22.99
    0.1137              -38.77         -1.046          76.96          43.13         -9.531         -6.103         -35.65         -5.051         -94.86          40.76          23.06
    0.1179               -38.8        -0.9925           76.9          43.14         -9.512         -6.093         -35.79         -4.963         -94.77          40.89          23.14
    0.1221              -38.83        -0.9317          76.83          43.15         -9.489         -6.081         -35.95         -4.862         -94.68          41.05          23.22
    0.1263              -38.86        -0.8624          76.74          43.15         -9.464         -6.067         -36.14         -4.747         -94.57          41.23          23.32
    0.1306               -38.9        -0.7828          76.65          43.16         -9.435         -6.051         -36.35         -4.616         -94.44          41.43          23.43
    0.1348              -38.95        -0.6909          76.54          43.18         -9.401         -6.033          -36.6         -4.464         -94.29          41.67          23.56
     0.139               -39.0        -0.5841          76.42          43.19         -9.362         -6.011         -36.89         -4.288         -94.12          41.94          23.71
    0.1432              -39.06        -0.4592          76.27           43.2         -9.316         -5.986         -37.22         -4.081         -93.92          42.27          23.89
    0.1474              -39.14        -0.3119          76.09          43.22         -9.262         -5.957         -37.62         -3.838         -93.68          42.64          24.09
    0.1516              -39.22        -0.1369          75.89          43.24         -9.198         -5.922         -38.09         -3.548          -93.4          43.09          24.34
    0.1558              -39.33        0.07289          75.64          43.27         -9.121          -5.88         -38.65         -3.201         -93.06          43.63          24.64
      0.16              -39.45         0.3267          75.34           43.3         -9.028         -5.829         -39.33         -2.782         -92.65          44.29          24.99
    0.1642              -39.61         0.6368          74.97          43.34         -8.914         -5.767         -40.16         -2.269         -92.15          45.08          25.43
    0.1685               -39.8          1.019          74.52          43.39         -8.774         -5.691         -41.19         -1.637         -91.54          46.07          25.97
    0.1727              -40.03          1.497          73.96          43.44         -8.599         -5.595         -42.47        -0.8481         -90.77          47.29          26.64
    0.1769              -40.33          2.098          73.24          43.52         -8.378         -5.475         -44.09         0.1456          -89.8          48.84          27.49
